# Created by Kenney (www.kenney.nl)

mtllib track-rail.mtl

g track-rail

v 0.25 0.05 -0.5 1 1 1
v 0.35 0.05 -0.5 1 1 1
v 0.25 0.15 -0.5 1 1 1
v 0.35 0.15 -0.5 1 1 1
v 0.35 0.05 0.5 1 1 1
v 0.25 0.05 0.5 1 1 1
v 0.35 0.15 0.5 1 1 1
v 0.25 0.15 0.5 1 1 1
v 0.25 0.15 2.887646E-15 1 1 1
v 0.35 0.15 2.887646E-15 1 1 1
v 0.25 0.05 2.887646E-15 1 1 1
v 0.35 0.05 2.887646E-15 1 1 1
v -0.35 0.05 -0.5 1 1 1
v -0.25 0.05 -0.5 1 1 1
v -0.35 0.15 -0.5 1 1 1
v -0.25 0.15 -0.5 1 1 1
v -0.25 0.05 0.5 1 1 1
v -0.35 0.05 0.5 1 1 1
v -0.25 0.15 0.5 1 1 1
v -0.35 0.15 0.5 1 1 1
v -0.35 0.15 2.887646E-15 1 1 1
v -0.25 0.15 2.887646E-15 1 1 1
v -0.35 0.05 2.887646E-15 1 1 1
v -0.25 0.05 2.887646E-15 1 1 1

vn 0 0 -1
vn 0 0 1
vn -0.7071068 0.7071068 0
vn 0.7071068 0.7071068 0
vn -1 0 0
vn 1 0 0
vn 0 -1 0

vt 0.96875 0.025
vt 0.96875 0.225

usemtl colormap

f 3/2/1 2/1/1 1/1/1
f 2/1/1 3/2/1 4/2/1
f 7/2/2 6/1/2 5/1/2
f 6/1/2 7/2/2 8/2/2
f 7/2/4 9/2/3 8/2/3
f 9/2/3 7/2/4 10/2/4
f 10/2/4 3/2/3 9/2/3
f 3/2/3 10/2/4 4/2/4
f 11/1/5 3/2/3 1/1/5
f 3/2/3 11/1/5 9/2/3
f 6/1/5 9/2/3 11/1/5
f 9/2/3 6/1/5 8/2/3
f 12/1/6 7/2/4 5/1/6
f 7/2/4 12/1/6 10/2/4
f 2/1/6 10/2/4 12/1/6
f 10/2/4 2/1/6 4/2/4
f 2/1/7 11/1/7 1/1/7
f 11/1/7 2/1/7 12/1/7
f 12/1/7 6/1/7 11/1/7
f 6/1/7 12/1/7 5/1/7
f 15/2/1 14/1/1 13/1/1
f 14/1/1 15/2/1 16/2/1
f 19/2/2 18/1/2 17/1/2
f 18/1/2 19/2/2 20/2/2
f 19/2/4 21/2/3 20/2/3
f 21/2/3 19/2/4 22/2/4
f 22/2/4 15/2/3 21/2/3
f 15/2/3 22/2/4 16/2/4
f 23/1/5 15/2/3 13/1/5
f 15/2/3 23/1/5 21/2/3
f 18/1/5 21/2/3 23/1/5
f 21/2/3 18/1/5 20/2/3
f 24/1/6 19/2/4 17/1/6
f 19/2/4 24/1/6 22/2/4
f 14/1/6 22/2/4 24/1/6
f 22/2/4 14/1/6 16/2/4
f 14/1/7 23/1/7 13/1/7
f 23/1/7 14/1/7 24/1/7
f 24/1/7 18/1/7 23/1/7
f 18/1/7 24/1/7 17/1/7

g track-rail




usemtl colormap

f 3/2/1 2/1/1 1/1/1
f 2/1/1 3/2/1 4/2/1
f 7/2/2 6/1/2 5/1/2
f 6/1/2 7/2/2 8/2/2
f 7/2/4 9/2/3 8/2/3
f 9/2/3 7/2/4 10/2/4
f 10/2/4 3/2/3 9/2/3
f 3/2/3 10/2/4 4/2/4
f 11/1/5 3/2/3 1/1/5
f 3/2/3 11/1/5 9/2/3
f 6/1/5 9/2/3 11/1/5
f 9/2/3 6/1/5 8/2/3
f 12/1/6 7/2/4 5/1/6
f 7/2/4 12/1/6 10/2/4
f 2/1/6 10/2/4 12/1/6
f 10/2/4 2/1/6 4/2/4
f 2/1/7 11/1/7 1/1/7
f 11/1/7 2/1/7 12/1/7
f 12/1/7 6/1/7 11/1/7
f 6/1/7 12/1/7 5/1/7
f 15/2/1 14/1/1 13/1/1
f 14/1/1 15/2/1 16/2/1
f 19/2/2 18/1/2 17/1/2
f 18/1/2 19/2/2 20/2/2
f 19/2/4 21/2/3 20/2/3
f 21/2/3 19/2/4 22/2/4
f 22/2/4 15/2/3 21/2/3
f 15/2/3 22/2/4 16/2/4
f 23/1/5 15/2/3 13/1/5
f 15/2/3 23/1/5 21/2/3
f 18/1/5 21/2/3 23/1/5
f 21/2/3 18/1/5 20/2/3
f 24/1/6 19/2/4 17/1/6
f 19/2/4 24/1/6 22/2/4
f 14/1/6 22/2/4 24/1/6
f 22/2/4 14/1/6 16/2/4
f 14/1/7 23/1/7 13/1/7
f 23/1/7 14/1/7 24/1/7
f 24/1/7 18/1/7 23/1/7
f 18/1/7 24/1/7 17/1/7

